<?xml version="1.0" encoding="utf-8"?>
<!-- Generator: Adobe Illustrator 16.0.0, SVG Export Plug-In . SVG Version: 6.00 Build 0)  -->
<!DOCTYPE svg PUBLIC "-//W3C//DTD SVG 1.1//EN" "http://www.w3.org/Graphics/SVG/1.1/DTD/svg11.dtd">
<svg version="1.1" id="Capa_1" xmlns="http://www.w3.org/2000/svg" xmlns:xlink="http://www.w3.org/1999/xlink" x="0px" y="0px"
	 width="595.28px" height="841.89px" viewBox="0 0 595.28 841.89" enable-background="new 0 0 595.28 841.89" xml:space="preserve">
<g>
	<defs>
		<rect id="SVGID_1_" x="168" y="258.184" width="263.229" height="325.707"/>
	</defs>
	<clipPath id="SVGID_2_">
		<use xlink:href="#SVGID_1_"  overflow="visible"/>
	</clipPath>
	
		<ellipse clip-path="url(#SVGID_2_)" fill="none" stroke="#FFFFFF" stroke-width="10.762" stroke-miterlimit="3.864" cx="299.667" cy="421.038" rx="113.928" ry="157.473"/>
	
		<path clip-path="url(#SVGID_2_)" fill="none" stroke="#FFFFFF" stroke-width="6.751" stroke-linecap="round" stroke-miterlimit="3.864" d="
		M345.072,530.713c-11.736,10.756-27.462,17.32-44.639,17.32c-17.174,0-32.817-6.564-44.553-17.32"/>
	<path clip-path="url(#SVGID_2_)" d="M182.497,394.621c19.29-19.29,50.565-19.29,69.855,0c19.291,19.29,19.291,50.565,0,69.854
		c-19.29,19.291-50.565,19.291-69.855,0C163.207,445.186,163.207,413.911,182.497,394.621"/>
	<path clip-path="url(#SVGID_2_)" fill="#FFFFFF" d="M376.949,478.943c3.514,0,6.361-2.135,6.361-4.768v-6.615
		c0-2.633-2.848-4.766-6.361-4.766l-163.244-0.014c-3.514,0-6.362,2.133-6.362,4.766v6.617c0,2.633,2.848,4.766,6.362,4.766
		L376.949,478.943z"/>
	<path clip-path="url(#SVGID_2_)" fill="#FFFFFF" d="M381.833,479.125c-27.282,0-49.399-22.111-49.401-49.393
		c0-27.278,22.113-49.393,49.396-49.394c27.281,0,49.4,22.112,49.4,49.39C431.23,457.01,409.115,479.125,381.833,479.125"/>
	<path clip-path="url(#SVGID_2_)" fill="#FFFFFF" d="M304.045,282.036c-2.484-2.483-6.007-2.99-7.868-1.128l-4.68,4.679
		c-1.861,1.862-1.356,5.386,1.128,7.869l115.429,115.434c2.484,2.483,6.007,2.989,7.868,1.128l4.68-4.68
		c1.861-1.86,1.356-5.385-1.127-7.869L304.045,282.036z"/>
	<path clip-path="url(#SVGID_2_)" fill="#FFFFFF" d="M217.396,479.125c27.281,0,49.398-22.111,49.398-49.393
		c0.001-27.278-22.114-49.393-49.396-49.394c-27.281,0-49.397,22.112-49.398,49.39C168,457.01,190.114,479.125,217.396,479.125"/>
	<path clip-path="url(#SVGID_2_)" fill="#FFFFFF" d="M295.18,282.036c2.484-2.483,6.007-2.99,7.868-1.128l4.679,4.679
		c1.861,1.862,1.355,5.386-1.127,7.869L191.175,408.889c-2.484,2.483-6.007,2.989-7.869,1.128l-4.679-4.68
		c-1.861-1.86-1.356-5.385,1.128-7.869L295.18,282.036z"/>
</g>
</svg>
